<?xml version="1.0" standalone="no"?>
<!DOCTYPE svg PUBLIC "-//W3C//DTD SVG 20010904//EN"
 "http://www.w3.org/TR/2001/REC-SVG-20010904/DTD/svg10.dtd">
<svg version="1.0" xmlns="http://www.w3.org/2000/svg"
 width="256.000000pt" height="256.000000pt" viewBox="0 0 256.000000 256.000000"
 preserveAspectRatio="xMidYMid meet">
<metadata>
Created by potrace 1.11, written by Peter Selinger 2001-2013
</metadata>
<g transform="translate(0.000000,256.000000) scale(0.100000,-0.100000)"
fill="#000000" stroke="none">
<path d="M1610 2200 c-18 -23 -30 -43 -27 -47 3 -3 39 -20 79 -37 163 -71 320
-203 403 -340 l40 -65 223 -1 222 0 0 115 c0 150 -4 155 -128 155 l-88 0 -84
130 -83 130 -263 0 -262 0 -32 -40z"/>
<path d="M45 1968 c-32 -18 -35 -28 -35 -145 l0 -113 240 0 240 0 0 135 0 135
-212 0 c-140 -1 -220 -5 -233 -12z"/>
<path d="M10 1008 c0 -332 3 -613 6 -626 13 -45 47 -52 269 -52 l205 0 0 640
0 640 -240 0 -240 0 0 -602z"/>
<path d="M1160 970 l0 -640 40 0 40 0 0 193 0 192 51 12 c133 32 231 144 265
302 45 213 -26 424 -173 519 -49 32 -145 62 -195 62 l-28 0 0 -640z"/>
<path d="M2155 1593 c62 -153 80 -259 79 -468 0 -153 -3 -192 -22 -257 -51
-185 -123 -314 -245 -444 l-89 -94 311 0 312 0 24 25 25 24 0 616 0 615 -201
0 c-188 0 -201 -1 -194 -17z"/>
</g>
</svg>
