<svg xmlns="http://www.w3.org/2000/svg" viewBox="0 0 256 256"><path d="M231.19,70.9H167V55h64.15V70.9ZM124.34,136.23q6.21,9.62,6.21,23.33A46.47,46.47,0,0,1,123.47,185a44.07,44.07,0,0,1-11.27,12.51,43.54,43.54,0,0,1-18,8,111.14,111.14,0,0,1-22.49,2.15H0V48.36H76.93c19.39.32,33.14,5.93,41.25,17q7.31,10.15,7.28,24.32c0,9.74-2.44,17.53-7.36,23.45q-4.1,5-12.13,9.06C114.08,125.13,120.23,129.8,124.34,136.23Zm-87.6-25.08H70.44c6.93,0,12.53-1.32,16.84-3.95s6.46-7.3,6.46-14c0-7.41-2.85-12.33-8.56-14.69C80.28,76.86,74,76,66.38,76H36.74ZM97,157.29c0-8.27-3.38-14-10.13-17.06-3.77-1.74-9.1-2.64-15.93-2.7H36.74V180H70.4c6.92,0,12.27-.91,16.13-2.79C93.49,173.71,97,167.1,97,157.29Zm158-25.91A149.84,149.84,0,0,1,256,154H172.9q.69,17.2,11.92,24.07c4.53,2.88,10,4.28,16.44,4.28,6.78,0,12.3-1.71,16.55-5.24a24.89,24.89,0,0,0,6.13-7.83H254.4c-.8,6.77-4.46,13.64-11.05,20.62Q228,206.59,200.43,206.61a62.28,62.28,0,0,1-40.19-14q-17.37-14.07-17.4-45.71,0-29.69,15.7-45.49c10.52-10.57,24.09-15.82,40.82-15.82a65.05,65.05,0,0,1,26.83,5.34,46.21,46.21,0,0,1,19.69,16.9A56.32,56.32,0,0,1,255,131.38Zm-30,3q-.84-11.89-8-18t-17.68-6.18c-7.67,0-13.59,2.21-17.8,6.54s-6.87,10.21-8,17.66H225Z"/></svg>