<svg xmlns="http://www.w3.org/2000/svg" viewBox="0 0 256 256"><path d="M225.65,135.46v72.2H183.79V140.29c0-16.92-6.06-28.47-21.21-28.47-11.57,0-18.45,7.78-21.48,15.31-1.11,2.69-1.39,6.44-1.39,10.21v70.32H97.84s.56-114.1,0-125.92h41.87V99.59c-.08.13-.2.27-.27.4h.27v-.4c5.56-8.57,15.49-20.8,37.73-20.8C205,78.79,225.65,96.81,225.65,135.46ZM54,21c-14.33,0-23.7,9.39-23.7,21.75,0,12.05,9.1,21.76,23.14,21.76h.28c14.6,0,23.65-9.68,23.65-21.76C77.18,30.44,68.37,21,54,21ZM32.84,207.66H74.7V81.74H32.84Z"/></svg>