<svg xmlns="http://www.w3.org/2000/svg" viewBox="0 0 256 256"><defs><style>.cls-1{fill:#740000;}.cls-2{fill:#333;}</style></defs><g><path class="cls-1" d="M49,94.5H0V216.62c0,4.8,3.79,7.88,8.59,7.88H49Z"/><path class="cls-2" d="M116,94.89V224.5h8V185.66c20-2,33.46-18.81,33.46-45.22C157.46,119.32,146,94.89,116,94.89Z"/><path class="cls-1" d="M214.49,94.5c6.67,12,10.21,32.25,10.21,51.46,0,29.22-13.29,59.54-37.62,78.54h61.49c4.8,0,7.43-3.08,7.43-7.88V94.5Z"/><path class="cls-2" d="M49,57.5H8.59C3.79,57.5,0,59.13,0,63.93V85.5H49Z"/><path class="cls-2" d="M248.57,57.5H234.52l-16.8-26H164l-7,9c24.06,8.33,42.51,23,54,45h45V63.93C256,59.13,253.37,57.5,248.57,57.5Z"/></g></svg>