<svg xmlns="http://www.w3.org/2000/svg" viewBox="0 0 256 50.64"><defs><style>.cls-1{fill:#fff;}</style></defs><g><g><path class="cls-1" d="M45.81,50.64V42.52a4,4,0,1,1,8.07,0,4.1,4.1,0,0,1-4,4.31,3.86,3.86,0,0,1-2.57-1V45a3.38,3.38,0,0,0,2.57,1.2,3.7,3.7,0,0,0,0-7.36,3.51,3.51,0,0,0-3.36,3.68v8.12Z"/><path class="cls-1" d="M61.48,46.65v-5a2.66,2.66,0,1,0-5.3,0v5h-.67V34.43h.67V39.5h0a3.12,3.12,0,0,1,2.61-1.3,3.25,3.25,0,0,1,3.32,3.41v5Z"/><path class="cls-1" d="M72.23,42.52A4.19,4.19,0,1,1,68,38.21,4.23,4.23,0,0,1,72.23,42.52Zm-7.68,0A3.49,3.49,0,1,0,68,38.84,3.59,3.59,0,0,0,64.55,42.52Z"/><path class="cls-1" d="M74.62,38.38h2.92V39H74.62v5.34A1.52,1.52,0,0,0,76.22,46h1.32v.63H76.35a2.18,2.18,0,0,1-2.4-2.36V36.11h.67Z"/><path class="cls-1" d="M86.48,42.52a4.19,4.19,0,1,1-4.19-4.31A4.23,4.23,0,0,1,86.48,42.52Zm-7.68,0a3.49,3.49,0,1,0,3.49-3.68A3.59,3.59,0,0,0,78.79,42.52Z"/><path class="cls-1" d="M89.51,49.53a5.94,5.94,0,0,0,2.08.42c2.25,0,3.55-1,3.55-3.87V42.52a3.51,3.51,0,0,0-3.36-3.68,3.7,3.7,0,0,0,0,7.36A3.41,3.41,0,0,0,94.35,45v.78a3.9,3.9,0,0,1-2.57,1,4.09,4.09,0,0,1-4-4.31,4,4,0,1,1,8.07,0v4a3.87,3.87,0,0,1-4.16,4.08,7.21,7.21,0,0,1-2.38-.42Z"/><path class="cls-1" d="M97.89,46.65V38.38h.67V40h0A2.83,2.83,0,0,1,101,38.38h.76V39h-.71c-1.28,0-2.54,1.37-2.54,3.32v4.33Z"/><path class="cls-1" d="M109.53,46.65V42.52a3.51,3.51,0,0,0-3.36-3.68,3.7,3.7,0,0,0,0,7.36,3.41,3.41,0,0,0,2.57-1.2v.78a3.9,3.9,0,0,1-2.57,1,4.09,4.09,0,0,1-4-4.31,4,4,0,1,1,8.07,0v4.14Z"/><path class="cls-1" d="M112.29,50.64V42.52a4,4,0,1,1,8.07,0,4.1,4.1,0,0,1-4,4.31,3.86,3.86,0,0,1-2.57-1V45a3.38,3.38,0,0,0,2.57,1.2,3.7,3.7,0,0,0,0-7.36A3.51,3.51,0,0,0,113,42.52v8.12Z"/><path class="cls-1" d="M128,46.65v-5a2.66,2.66,0,1,0-5.3,0v5H122V34.43h.67V39.5h0a3.12,3.12,0,0,1,2.61-1.3,3.25,3.25,0,0,1,3.32,3.41v5Z"/><path class="cls-1" d="M133.68,50.43V46.79a3.21,3.21,0,0,1-3-3.36V38.38h.67v5a2.66,2.66,0,1,0,5.3,0v-5h.67v5.05a3.21,3.21,0,0,1-3,3.36v3.64Z"/><path class="cls-1" d="M152,34.43v.63h-4.92c-.88,0-1.13.29-1.13.93s.44,1.09,1.13,1.85l5.76,6.52a4.3,4.3,0,0,0,.63-2.46,3.76,3.76,0,0,0-1.53-3.18l.44-.42a4.38,4.38,0,0,1,1.79,3.78,4.65,4.65,0,0,1-.9,2.82l1.41,1.75h-.84l-1-1.28a5.3,5.3,0,0,1-4.06,1.49c-2.31,0-5.05-1.41-5.05-4.77a4.42,4.42,0,0,1,2.5-4.19c-.8-1-.93-1.33-.93-2,0-1.09.84-1.51,2-1.51Zm-5.32,3.91a3.92,3.92,0,0,0-2.27,3.58,4.11,4.11,0,0,0,4.4,4.27,4.57,4.57,0,0,0,3.58-1.3Z"/><path class="cls-1" d="M160.77,46.65V38.38h.67V40h0a2.83,2.83,0,0,1,2.44-1.58h.76V39H164c-1.28,0-2.54,1.37-2.54,3.32v4.33Z"/><path class="cls-1" d="M166.88,43.68l5.32-3.58a3.39,3.39,0,0,0-2.67-1.26,3.64,3.64,0,0,0-3.6,3.74,3.61,3.61,0,0,0,7.23.11h.71a4.31,4.31,0,1,1-4.33-4.48,4.3,4.3,0,0,1,3.68,2l-5.91,4Z"/><path class="cls-1" d="M176,38.38h2.92V39H176v5.34a1.52,1.52,0,0,0,1.6,1.68h1.32v.63h-1.18a2.18,2.18,0,0,1-2.4-2.36V36.11H176Z"/><path class="cls-1" d="M187.85,42.52a4.19,4.19,0,1,1-4.19-4.31A4.23,4.23,0,0,1,187.85,42.52Zm-7.68,0a3.49,3.49,0,1,0,3.49-3.68A3.59,3.59,0,0,0,180.17,42.52Z"/><path class="cls-1" d="M190.23,38.38v5a2.66,2.66,0,1,0,5.3,0v-5h.67v5.05a3.32,3.32,0,1,1-6.64,0V38.38Z"/><path class="cls-1" d="M203.37,38.91h-1.2a3.52,3.52,0,1,0,0,7h1.2v.71h-1.24a4.22,4.22,0,0,1,0-8.45h1.24Z"/><path class="cls-1" d="M211.05,46.65v-5a2.66,2.66,0,1,0-5.3,0v5h-.67V34.43h.67V39.5h0a3.12,3.12,0,0,1,2.61-1.3,3.25,3.25,0,0,1,3.32,3.41v5Z"/></g></g><g><g><path class="cls-1" d="M44.73,23.27V16.32a3.78,3.78,0,1,0-7.54,0,3.92,3.92,0,0,0,3.68,4.05,4.39,4.39,0,0,0,2.84-1.15v3.43a6.45,6.45,0,0,1-3.09.93,6.9,6.9,0,0,1-6.86-7c0-4.39,3.12-7.48,7-7.48s7.42,2.8,7.42,8.07v6.14Z"/><path class="cls-1" d="M59.53,23.27V15.38c0-2-1.15-3.18-2.68-3.18s-2.68,1.15-2.68,3.18v7.88h-3.4V14.85c0-3.3,2.34-5.8,6.08-5.8s6.08,2.49,6.08,5.8v8.41Z"/><path class="cls-1" d="M67.82,7.31a2.09,2.09,0,0,1-2.09-2.09,2.1,2.1,0,1,1,2.09,2.09Zm-1.68,16V9.37h3.4v13.9Z"/><path class="cls-1" d="M79.82,23.58a7.15,7.15,0,0,1-7.39-7.35,7.16,7.16,0,0,1,7.14-7.17,7,7,0,0,1,6.73,4.49L78,18.72l-1.15-1.9,5.76-3.71a4,4,0,0,0-3.08-1.34,4.32,4.32,0,0,0-4.08,4.43,4.41,4.41,0,0,0,4.43,4.61,5.15,5.15,0,0,0,4.86-3.93L87,18.5A7.65,7.65,0,0,1,79.82,23.58Z"/><path class="cls-1" d="M89.85,23.27v-20h3.4v20Z"/><path class="cls-1" d="M107,23.27V16.32a3.78,3.78,0,1,0-7.54,0,3.92,3.92,0,0,0,3.68,4.05A4.39,4.39,0,0,0,106,19.22v3.43a6.45,6.45,0,0,1-3.09.93,6.9,6.9,0,0,1-6.86-7c0-4.39,3.12-7.48,7-7.48s7.42,2.8,7.42,8.07v6.14Z"/><path class="cls-1" d="M139.83,23.27,138.28,8.53c0-.28-.09-.72-.22-.72s-.22.16-.28.41l-3.46,12.56c-.62,2.34-.87,2.77-2.12,2.77s-1.46-.44-2.09-2.77l-3.4-12.31c-.06-.25-.19-.65-.31-.65s-.22.16-.25.41L124.6,23.27H121l1.9-17.17c.25-2.31,1.31-3.15,2.8-3.15,2,0,2.49.56,3.15,2.8L132,16.94c.06.16.16.31.22.31s.16-.28.22-.44L135.6,5.75c.65-2.24,1.15-2.8,3.15-2.8,1.5,0,2.56.84,2.8,3.15l1.9,17.17Z"/><path class="cls-1" d="M152.76,23.58a7.15,7.15,0,0,1-7.39-7.35,7.16,7.16,0,0,1,7.14-7.17,7,7,0,0,1,6.73,4.49L151,18.72l-1.15-1.9,5.76-3.71a4,4,0,0,0-3.08-1.34,4.32,4.32,0,0,0-4.08,4.43,4.41,4.41,0,0,0,4.43,4.61,5.15,5.15,0,0,0,4.86-3.93l2.18,1.62A7.65,7.65,0,0,1,152.76,23.58Z"/><path class="cls-1" d="M166.82,23.27c-2.84,0-4.61-1.62-4.61-4.86V5.29h3.4V9.37h3.93v3H165.6V18c0,1.65.75,2.4,2.24,2.4h1.68v2.87Z"/><path class="cls-1" d="M178.13,23.58a7.26,7.26,0,1,1,7.17-7.26A7.23,7.23,0,0,1,178.13,23.58Zm0-11.19a3.93,3.93,0,1,0,3.77,3.93A3.9,3.9,0,0,0,178.13,12.39Z"/><path class="cls-1" d="M194.36,23.58a7,7,0,0,1-7-7.35c0-4.08,2.84-7.17,6.79-7.17a5.93,5.93,0,0,1,3.08.93v3.43a4.2,4.2,0,0,0-2.84-1.12,3.94,3.94,0,0,0-3.74,4,3.9,3.9,0,0,0,3.71,4.05c2.21,0,3.8-1.84,3.8-4.27V3.29h3.4V15.54C201.56,20.77,198.32,23.58,194.36,23.58Z"/><path class="cls-1" d="M206.52,7.31a2.09,2.09,0,0,1-2.09-2.09,2.1,2.1,0,1,1,2.09,2.09Zm-1.68,16V9.37h3.4v13.9Z"/><path class="cls-1" d="M218.51,23.58a7.15,7.15,0,0,1-7.39-7.35,7.16,7.16,0,0,1,7.14-7.17A7,7,0,0,1,225,13.54l-8.26,5.17-1.15-1.9,5.76-3.71a4,4,0,0,0-3.08-1.34,4.32,4.32,0,0,0-4.08,4.43,4.41,4.41,0,0,0,4.43,4.61,5.15,5.15,0,0,0,4.86-3.93l2.18,1.62A7.65,7.65,0,0,1,218.51,23.58Z"/><path class="cls-1" d="M236.56,21.43a2.72,2.72,0,0,1-2.9,2.15,2.69,2.69,0,0,1-2.87-2.15l-4-12.06h3.46l3.18,10.41c.06.22.16.28.25.28s.16-.31.22-.5l3.15-10.19h3.46Z"/><path class="cls-1" d="M252.57,23.27V16.32a3.78,3.78,0,1,0-7.54,0,3.92,3.92,0,0,0,3.68,4.05,4.39,4.39,0,0,0,2.84-1.15v3.43a6.45,6.45,0,0,1-3.09.93,6.9,6.9,0,0,1-6.86-7c0-4.39,3.12-7.48,7-7.48s7.42,2.8,7.42,8.07v6.14Z"/></g><g><path class="cls-1" d="M6,8H0V22.64C0,23.23.46,24,1.05,24H6Z"/><path class="cls-1" d="M14,7.75V24h1V18.85c3-.24,4.08-2.3,4.08-5.53C19.08,10.74,18,7.75,14,7.75Z"/><path class="cls-1" d="M26.23,8c.82,1,1.25,4,1.25,6.34,0,3.57-1.63,6.66-4.6,9.66H30.4c.59,0,.6-.77.6-1.36V8Z"/><path class="cls-1" d="M6,3H1.05A1,1,0,0,0,0,4V7H6Z"/><path class="cls-1" d="M30.4,3H28.68L26.63,0H20.05l-.86,1.3A10.61,10.61,0,0,1,25.8,7H31V4C31,3.38,31,3,30.4,3Z"/></g></g></svg>